<svg width="89" height="89" viewBox="0 0 89 89" fill="none" xmlns="http://www.w3.org/2000/svg">
<g clip-path="url(#clip0_13_219)">
<path d="M71.6172 0H17.3828C7.78255 0 0 7.78255 0 17.3828V71.6172C0 81.2175 7.78255 89 17.3828 89H71.6172C81.2175 89 89 81.2175 89 71.6172V17.3828C89 7.78255 81.2175 0 71.6172 0Z" fill="#006751"/>
<path d="M40.7415 55.0844C41.197 55.5798 41.4473 56.1604 41.4473 56.8244C41.4473 58.2307 40.3278 59.3919 38.8763 59.3919C38.1706 59.3919 37.5101 59.1416 37.0946 58.6461L35.9352 57.4867C33.9049 58.5662 31.5877 59.1867 29.3071 59.1867C22.0185 59.1867 14.8516 53.1393 14.8516 44.3975C14.8516 35.6556 22.0185 29.6116 29.3071 29.6116C36.5957 29.6116 43.7227 35.6591 43.7227 44.3975C43.7227 48.3746 42.2729 51.7712 39.9958 54.3004L40.7415 55.0861V55.0844ZM31.5443 52.9289L29.8877 51.2324C29.4323 50.7335 29.142 50.1529 29.142 49.4924C29.142 48.0826 30.2614 46.9214 31.7129 46.9214C32.4152 46.9214 33.0792 47.1717 33.4946 47.6706L35.6466 49.8626C36.6409 48.4164 37.2215 46.5512 37.2215 44.3957C37.2215 39.094 33.6163 35.5322 29.3088 35.5322C25.0014 35.5322 21.3962 39.094 21.3962 44.3957C21.3962 49.6975 25.0014 53.2627 29.3088 53.2627C30.098 53.2627 30.8437 53.1375 31.5443 52.9289ZM74.1478 56.2438C74.1478 57.7753 72.8215 59.0599 71.1249 59.0599C69.7152 59.0599 68.6392 58.2741 68.1438 57.0695L66.3186 52.7621H55.0945L53.2728 57.0695C52.7739 58.2741 51.6579 59.0599 50.2882 59.0599C48.5916 59.0599 47.2653 57.7753 47.2653 56.2438C47.2653 55.6233 47.4304 54.9592 47.6807 54.4621L57.6602 32.0087C58.366 30.4373 59.3203 29.6881 60.6848 29.6881C62.0494 29.6881 63.0454 30.4373 63.7094 32.0087L73.7341 54.4621C73.9809 54.9575 74.1461 55.6215 74.1461 56.2438H74.1478ZM64.2483 47.8758L60.6866 39.5476L57.1648 47.8758H64.2483Z" fill="white"/>
</g>
<defs>
<clipPath id="clip0_13_219">
<rect width="89" height="89" fill="white"/>
</clipPath>
</defs>
</svg>
