<svg id="Layer_1" data-name="Layer 1" xmlns="http://www.w3.org/2000/svg" viewBox="0 0 854.81 748.4"><defs><style>.cls-1{fill:#026751;}.cls-2{fill:#fff;}</style></defs><circle class="cls-1" cx="375.32" cy="360.77" r="310.21"/><path class="cls-2" d="M303.83,383.27c-9.37,9.62-18.1,18.67-26.93,27.61-9,9.1-18.19,18-27.08,27.19-3.51,3.64-6.9,4.39-11.56,2.33Q169.37,410,100.39,379.87c-6.4-2.82-7.5-7.35-2.58-12.32,20-20.19,40.15-40.23,60.26-60.32,3.18-3.18,6.7-2.61,10.41-1q48.78,21.42,97.61,42.77c12.22,5.36,24.41,10.8,36.7,16a13,13,0,0,0,7.07.88Q398,349.39,486.07,332.66q48.48-9.15,97-18.17c8.7-1.63,9.69-1.14,14.26,6.17q20,32.07,40.1,64.13c4.82,7.71,3.17,11.4-5.94,13.11q-62.06,11.69-124.11,23.31Q444.75,433,382.14,444.89c-10,1.88-20,3.59-29.94,5.6-4.24.86-6.83-.92-8.9-4.26q-13.71-22-27.45-44C312.09,396.18,308.24,390.22,303.83,383.27Zm319.26,3.08c-12.28-19.55-23.91-38.2-35.78-56.7-.78-1.21-3.54-2-5.14-1.71-32.71,6-65.38,12.29-98.07,18.43q-58.47,11-117,21.91c-16.74,3.13-33.48,6.28-50.71,9.52a34.56,34.56,0,0,0,1.61,3.53c11,17.53,22.06,35,32.84,52.61,2.06,3.36,4.61,2.73,7.25,2.23Q413,426,467.78,415.65q50.06-9.42,100.11-18.88Zm-328-9.87c-3.34-1.83-4.58-2.65-5.92-3.23Q229.31,347,169.45,320.74c-3.59-1.59-5.7-.81-8.27,1.79-15,15.13-30.07,30.1-45.1,45.16a33.33,33.33,0,0,0-2.59,3.34,9.19,9.19,0,0,0,1.32.93q61.88,27.14,123.84,54.1c1.57.68,4.73-.21,6.1-1.48,7.69-7.19,14.95-14.82,22.55-22.1C276.24,393.92,285.37,385.57,295.11,376.48Z"/><path class="cls-2" d="M582.66,509.86V440.13c0-7.71,1.93-11,6.46-11.18,4.69-.16,6.65,3,6.65,10.82q0,35.63,0,71.25c0,9-.73,9.59-9.59,11.25-34.55,6.46-69.08,13.06-103.62,19.54q-74.55,14-149.11,27.9c-8.14,1.52-16.24,3.27-24.42,4.42a17.78,17.78,0,0,1-9.14-1.11c-45.7-19.84-91.31-39.9-137-59.77-4.27-1.86-5.88-4.46-5.85-9.05q.24-33.65,0-67.29c0-4.79,1.77-8,6.58-7.88,4.55.09,6.24,3.4,6.23,7.8-.06,19.79.09,39.58-.11,59.37-.05,4.41,1.37,6.56,5.53,8.36,39.18,16.92,78.23,34.12,117.32,51.22,1.7.74,3.44,1.37,6.26,2.49v-7.06q0-59.94,0-119.87a29.38,29.38,0,0,1,.19-5.64c.71-3.63,3.33-6,6.77-5.08,2.31.64,4.4,3.28,5.8,5.52.86,1.37.24,3.67.24,5.55V560.63Z"/><path class="cls-2" d="M414.12,239.28c-9.36,1.85-17.79,3.72-26.3,5.11-4,.66-5,2.5-5,6.39.17,24.69.07,49.38.06,74.08,0,1.13.07,2.26,0,3.39-.27,4.43-2.52,7.31-7.07,7-4.18-.29-6-3.1-6-7.39.07-21.3-1.05-42.67.38-63.87,1-15-3.44-24.25-16.24-32.52-22.27-14.38-43.16-30.88-64.65-46.47-1-.73-2.14-1.27-4.25-2.5,0,4.77,0,8.64,0,12.52,0,4.16-1.73,7-6.25,7s-6.3-2.67-6.29-6.94c0-8.48.05-17,0-25.44,0-4.07,2-6.27,5.83-7,14.19-2.82,28.33-5.95,42.6-8.25,2.94-.48,6.83,1.46,9.5,3.38,24.79,17.77,49.41,35.77,74.07,53.71,6.09,4.43,12.44,8.57,18.15,13.44,2.25,1.92,4.37,5.47,4.41,8.3.32,28.45.18,56.92.21,85.38,0,4.37-1.62,7.39-6.27,7.8-4.07.36-6.85-2.77-6.86-7.8q-.09-35.91,0-71.82Zm-9.86-11.43c-1.47-1.27-2.11-1.92-2.84-2.45q-38.52-28.08-77.07-56.12c-.9-.66-2-1.73-2.9-1.59-8.49,1.42-16.95,3.06-26.94,4.92,28.15,20.47,54.73,39.84,81.44,59,1.43,1,4,1.17,5.83.84C389,231.21,396.11,229.57,404.26,227.85Z"/><path class="cls-2" d="M303,273.71c0,4.56-.18,8.88.1,13.17a6.39,6.39,0,0,0,2.15,4.17c11.71,9.12,16.06,21.36,15.6,35.76-.1,3.39.07,6.78,0,10.17-.12,4.16-2.31,7.12-6.42,7.2-4.42.09-6.69-2.86-6.69-7.37,0-4.9,0-9.79-.06-14.69-.1-9.39-4-16.87-12.07-21.61-4.4-2.59-5.81-5.88-5.59-10.65.24-5.24.05-10.5.05-16.19H214.3c0,5.64,0,11.39,0,17.13,0,5.48-7.35,13.43-12.82,13.25a8.25,8.25,0,0,1-5.79-3.37c-.94-1.46-.87-5.3.18-6,7.89-5.45,5-13.29,5.36-20.4-8.48-2.67-8.87-3.21-8.87-12.27,0-9.61-.06-19.22,0-28.83,0-5.9,2.3-8.3,8.16-8.31q51.72-.08,103.44,0c5.53,0,7.87,2.43,7.91,8,.08,10.55,0,21.1,0,31.65C311.85,270.87,310.37,272.5,303,273.71Zm-97.24-14h92.6V238.22h-92.6Z"/><path class="cls-2" d="M508.9,215.89c8.48,0,17-.07,25.43,0,5.87.07,8.21,2.4,8.27,8.25.1,8.67-.16,17.34.15,26a9,9,0,0,0,2.85,6c11.63,9.4,15.27,21.9,14.72,36.16-.17,4.28-2.05,7.64-6.67,7.46-4.45-.18-6.53-3.26-6.27-7.76.5-8.76-1-16.86-7.49-23.39-2.89-2.91-6-4.62-10.4-4.52-12.43.28-24.9.63-37.29-.08-9.62-.56-14.84,4.41-18.18,12.07a36.48,36.48,0,0,0-2.48,12.57c-.39,7.33-.17,14.69-.1,22,0,3.8-1.78,6.12-5.43,6.66s-6.89-1.17-7-4.86c-.63-15.85-3.44-32.08,5.8-46.69,1.69-2.67,3.56-5.65,6.12-7.26,4.94-3.1,5.6-7.32,5.4-12.49-.28-7.33-.17-14.69,0-22,.11-5.88,2.4-8.07,8.34-8.13,8.1-.08,16.2,0,24.3,0Zm20.26,13.52H489.87v21.66h39.29Z"/><path class="cls-2" d="M456.24,118.48h23.17c8.39,0,10.06,1.75,10,10.37,0,10.17.2,20.35-.1,30.52-.13,4.3,1,6.77,5.19,8.6,7.9,3.44,12.19,9.8,12.27,18.62,0,3.68-1.68,6.2-5.53,6.59s-6-1.35-7-5.07A15.93,15.93,0,0,0,479,175.86q-22.89-.26-45.78,0c-7.17.08-12.6,5.31-15.32,12.29-.88,2.25-4.47,4.6-7,4.78-4,.29-5.8-3.2-5.56-7,.56-8.68,5.13-14.9,12.94-18.37,3.68-1.64,4.94-3.71,4.84-7.69-.28-10.54-.12-21.1-.1-31.65,0-7.92,1.75-9.71,9.44-9.75C440.41,118.46,448.33,118.49,456.24,118.48Zm19.66,13.37H436.44V162.2H475.9Z"/><path class="cls-2" d="M325.12,494.39l1.71-.28c2.81-.47,4.72-1.37,5.73-2.72a6.64,6.64,0,0,0,.92-5.31A17.19,17.19,0,0,0,333,484c-.2-.72-.44-1.44-.72-2.19L330.53,477l4.15-1.33,1.23,3.37c.45,1.23.82,2.38,1.11,3.44a25.5,25.5,0,0,1,.65,2.83,16.06,16.06,0,0,1,.1,5,9.84,9.84,0,0,1-4.85,7.28,14.83,14.83,0,0,1-5.18,1.77l-1.76.29Z"/><path class="cls-2" d="M350.94,485.68c-2.89.48-5.12.25-6.67-.69s-2.55-2.75-3-5.45l-3.61-21.79,4.7-.78,3.51,21.24a2.71,2.71,0,0,0,1.2,2.16,4.86,4.86,0,0,0,2.88.14l1.36-.23.68,4.12-1,1.27Z"/><path class="cls-2" d="M350.3,481.55l1-1.27,4.69-.77.68,4.12-1,1.26-4.7.78Z"/><path class="cls-2" d="M355,480.77l1-1.26,4.69-.78.69,4.12-1,1.27-4.69.77Z"/><path class="cls-2" d="M359.69,480l1-1.27,4.7-.78.68,4.12-1,1.27-4.69.78Z"/><path class="cls-2" d="M364.38,479.22l1-1.27,4.69-.77.68,4.12-1,1.26-4.69.78Z"/><path class="cls-2" d="M369.07,478.44l1-1.26,4.69-.78.68,4.12-1,1.27-4.7.77Z"/><path class="cls-2" d="M373.76,477.67l1-1.27,4.69-.78.69,4.13-1,1.26-4.7.78Z"/><path class="cls-2" d="M378.45,476.89l1-1.27,4.7-.77.68,4.12-1,1.26-4.69.78Z"/><path class="cls-2" d="M383.15,476.11l1-1.26,4.69-.78.68,4.12-1,1.27-4.69.77Z"/><path class="cls-2" d="M387.84,475.34l1-1.27,4.69-.78.68,4.13-1,1.26-4.69.78Z"/><path class="cls-2" d="M392.53,474.56l1-1.27,4.69-.77.68,4.12-1,1.27-4.7.77Z"/><path class="cls-2" d="M397.23,473.78l1-1.26,4.7-.78.68,4.12-1,1.27-4.69.78Z"/><path class="cls-2" d="M401.92,473l1-1.27,4.7-.78.68,4.13-1,1.26-4.69.78Z"/><path class="cls-2" d="M406.61,472.23l1-1.27,4.69-.77.68,4.12-1,1.27-4.69.77Z"/><path class="cls-2" d="M411.3,471.45l1-1.26,4.69-.78.68,4.12-1,1.27-4.7.78Z"/><path class="cls-2" d="M416,470.68l1-1.27,4.69-.78.69,4.13-1,1.26-4.69.78Z"/><path class="cls-2" d="M420.69,469.9l1-1.26,4.7-.78.68,4.12-1,1.27-4.69.77Z"/><path class="cls-2" d="M425.38,469.12l1-1.26,4.69-.78.68,4.12-1,1.27-4.69.78Z"/><path class="cls-2" d="M430.07,468.35l1-1.27,4.69-.77.68,4.12-1,1.26-4.69.78Z"/><path class="cls-2" d="M434.76,467.57l1-1.26,4.69-.78.69,4.12-1,1.27-4.7.77Z"/><path class="cls-2" d="M439.46,466.79l1-1.26,4.7-.78.68,4.12-1,1.27-4.69.78Z"/><path class="cls-2" d="M444.15,466l1-1.27,4.7-.77.68,4.12-1,1.26-4.69.78Z"/><path class="cls-2" d="M448.84,465.24l1-1.26,4.69-.78.68,4.12-1,1.27-4.7.77Z"/><path class="cls-2" d="M453.53,464.46l1-1.26,4.69-.78.68,4.12-1,1.27-4.7.78Z"/><path class="cls-2" d="M458.22,463.69l1-1.27,4.69-.77.69,4.12-1,1.26-4.69.78Z"/><path class="cls-2" d="M462.92,462.91l1-1.26,4.7-.78.68,4.12-1,1.27-4.69.77Z"/><path class="cls-2" d="M467.61,462.13l1-1.26,4.69-.78.68,4.12-1,1.27-4.69.78Z"/><path class="cls-2" d="M472.3,461.36l1-1.27,4.69-.77.68,4.12-1,1.26-4.7.78Z"/><path class="cls-2" d="M477,460.58l1-1.26,4.69-.78.69,4.12-1,1.27-4.69.77Z"/><path class="cls-2" d="M481.69,459.81l1-1.27,4.7-.78.68,4.12-1,1.27-4.69.78Z"/><path class="cls-2" d="M486.38,459l1-1.27,4.69-.77.68,4.12-1,1.26-4.69.78Z"/><path class="cls-2" d="M491.07,458.25l1-1.26,4.69-.78.68,4.12-1,1.27-4.69.77Z"/><path class="cls-2" d="M495.76,457.48l1-1.27,4.69-.78.68,4.12-1,1.27-4.7.78Z"/><path class="cls-2" d="M500.46,456.7l1-1.27,4.7-.77.68,4.12-1,1.26-4.69.78Z"/><path class="cls-2" d="M505.15,455.92l1-1.26,4.7-.78.68,4.12-1,1.27-4.69.77Z"/><path class="cls-2" d="M509.84,455.15l1-1.27,4.69-.78.68,4.12-1,1.27-4.69.78Z"/><path class="cls-2" d="M514.53,454.37l1-1.27,4.69-.77.68,4.12-1,1.26-4.7.78Z"/><path class="cls-2" d="M519.22,453.59l1-1.26,4.7-.78.68,4.12-1,1.27-4.69.77Z"/><path class="cls-2" d="M523.92,452.82l1-1.27,5.18-.86,0-.21a9.62,9.62,0,0,1-3.19-2.81,8.52,8.52,0,0,1-1.4-3.43,8.65,8.65,0,0,1,.08-3.33,8,8,0,0,1,1.29-2.94,8.33,8.33,0,0,1,2.38-2.23,9.56,9.56,0,0,1,6.87-1.14,8.54,8.54,0,0,1,3,1.35,8.08,8.08,0,0,1,2.17,2.37,8.67,8.67,0,0,1,1.14,3.12,8.37,8.37,0,0,1-.22,3.71,9.45,9.45,0,0,1-2.11,3.68l.12.19,5.31-.88.68,4.12-1,1.27-.48.08a19.88,19.88,0,0,1-4.61.21,14.12,14.12,0,0,1-4.46-1.11,13.83,13.83,0,0,1-3.85,2.48,18.53,18.53,0,0,1-4.41,1.28l-2.8.47Zm7.73-21.88a2.66,2.66,0,0,1-1.83-.29,2.94,2.94,0,0,1-.61-3.73,2.67,2.67,0,0,1,1.63-.86l.75-.12a2.61,2.61,0,0,1,1.83.29,2.38,2.38,0,0,1,1,1.77A2.31,2.31,0,0,1,534,430a2.57,2.57,0,0,1-1.63.86Zm3.42,18.2a11.93,11.93,0,0,0,3-3,4.52,4.52,0,0,0,.67-3.27A3.55,3.55,0,0,0,537,440.2a4.78,4.78,0,0,0-3.31-.53l-.49.08a4.79,4.79,0,0,0-3,1.57,3.57,3.57,0,0,0-.78,3,4.45,4.45,0,0,0,1.72,2.87A12.12,12.12,0,0,0,535.07,449.14Z"/><path class="cls-2" d="M544.53,449.41l1-1.27,1.75-.29a3.43,3.43,0,0,0,2.32-1.08,2.86,2.86,0,0,0,.33-2.21l-3.53-21.36,4.65-.77,3.53,21.36q.67,4.08-.78,6.3t-5.66,3l-2.94.49Z"/><path class="cls-2" d="M556.72,421.49l4.69-.77L566.26,450l-4.69.78Z"/><path class="cls-2" d="M349.38,534.79c-2.67.42-4.68.19-6-.67a6,6,0,0,1-2.55-4.38l-.05-.32-.26.05a5.25,5.25,0,0,1-5.09,5.48,6.72,6.72,0,0,1-4.91-.71,5.54,5.54,0,0,1-2.3-4,6.8,6.8,0,0,1,1.09-5.23,19.21,19.21,0,0,1,4.86-4.51l4.42-3-.36-2.14,4.61-.76L345,527.79a2.18,2.18,0,0,0,1,1.71,4,4,0,0,0,2.39.13l1.35-.22.69,4.12ZM333.1,512.94a2.66,2.66,0,0,1-1.83-.29,2.94,2.94,0,0,1-.61-3.73,2.67,2.67,0,0,1,1.63-.86l.75-.12a2.61,2.61,0,0,1,1.83.29,2.4,2.4,0,0,1,1,1.77,2.31,2.31,0,0,1-.38,1.95,2.57,2.57,0,0,1-1.63.86Zm2.66,16.62a9,9,0,0,0,3.53-1.12,1.88,1.88,0,0,0,.73-2l-.84-5.08-3.32,2.23a19.6,19.6,0,0,0-3.17,2.39,2.41,2.41,0,0,0-.77,2.16,1.65,1.65,0,0,0,1,1.4A5.93,5.93,0,0,0,335.76,529.56Zm3.88-17.7a2.64,2.64,0,0,1-1.83-.29,2.32,2.32,0,0,1-1-1.73,2.4,2.4,0,0,1,.37-2,2.7,2.7,0,0,1,1.64-.86l.74-.12a2.6,2.6,0,0,1,1.83.29,2.93,2.93,0,0,1,.62,3.72,2.6,2.6,0,0,1-1.64.86Z"/><path class="cls-2" d="M348.7,530.67l1-1.26,1.36-.23q3.6-.6,3.11-3.57l-1-5.82,4.3-.71,1,5.82q.5,3,3.79,2.43l1.66-.28.68,4.12-1,1.27a9.57,9.57,0,0,1-5.37-.33,6,6,0,0,1-3-3.33l-.22,0a6.37,6.37,0,0,1-1.42,4.1,7.06,7.06,0,0,1-4.17,1.87Zm6.7,11.68a2.62,2.62,0,0,1-1.82-.29,2.32,2.32,0,0,1-1-1.73,2.4,2.4,0,0,1,.37-2,2.65,2.65,0,0,1,1.64-.86l.74-.12a2.6,2.6,0,0,1,1.83.29,2.94,2.94,0,0,1,.62,3.72,2.6,2.6,0,0,1-1.64.86Zm6.54-1.08a2.72,2.72,0,0,1-1.83-.29,2.32,2.32,0,0,1-1-1.73,2.36,2.36,0,0,1,.36-2,2.65,2.65,0,0,1,1.64-.86l.75-.12a2.57,2.57,0,0,1,1.82.29,2.35,2.35,0,0,1,1,1.76,2.32,2.32,0,0,1-.38,2,2.57,2.57,0,0,1-1.64.86Z"/><path class="cls-2" d="M362.87,509.6l1.76-.29v-.17a2.89,2.89,0,0,1-1.17-1.95,3.35,3.35,0,0,1,.85-2.89,5,5,0,0,1,3.09-1.6,6.39,6.39,0,0,1,2.42.08,5.56,5.56,0,0,1,2.12.94l-1.58,2.72a3.3,3.3,0,0,0-2.44-.57,2.06,2.06,0,0,0-1.17.54,1,1,0,0,0-.35.89c.16.95,1.26,1.26,3.31.92l3.11-.51.53,3.16-10,1.66Zm0,18.72,1-1.27,1.1-.18a10.92,10.92,0,0,0,4.14-1.27,2.13,2.13,0,0,0,.81-2.27,14.24,14.24,0,0,0-.37-1.59c-.18-.64-.46-1.48-.85-2.53l-1.29-3.45,4.19-1.34,1.21,3.46c.29.87.55,1.73.79,2.58s.39,1.57.49,2.18c.45,2.69,0,4.8-1.3,6.32s-3.63,2.55-7,3.1l-2.28.38Z"/><path class="cls-2" d="M374.92,500.44l4.69-.78L384.46,529l-4.69.77Z"/><path class="cls-2" d="M394.11,527.39a6.14,6.14,0,0,1-4.28-.57,4.88,4.88,0,0,1-2.09-3.63l-.46-2.77,4.47-.74.45,2.69,6-1a6.87,6.87,0,0,0,2.64-.83,1.37,1.37,0,0,0,.55-1.45,3.94,3.94,0,0,0-.38-1,13.62,13.62,0,0,0-.78-1.33l-5.63-9.5,4.61-2.39,6.31,10.64a15.32,15.32,0,0,0,1.4,2.09,7.07,7.07,0,0,0,1.26,1.22,3,3,0,0,0,1.28.52,4.82,4.82,0,0,0,1.46,0l1.27-.21.69,4.12-1,1.27a16.23,16.23,0,0,1-2.94.24,7.19,7.19,0,0,1-2.32-.43,6.41,6.41,0,0,1-2-1.2,13,13,0,0,1-1.86-2.11l-.17.06a6.18,6.18,0,0,1-1.2,4,6.5,6.5,0,0,1-4,1.8Zm1.29-24.85a2.62,2.62,0,0,1-1.82-.28,2.32,2.32,0,0,1-1-1.73,2.39,2.39,0,0,1,.37-2,2.65,2.65,0,0,1,1.64-.86l.74-.12a2.65,2.65,0,0,1,1.83.28,2.35,2.35,0,0,1,1,1.77,2.32,2.32,0,0,1-.37,2,2.65,2.65,0,0,1-1.64.86Z"/><path class="cls-2" d="M411.15,520.34l1-1.27,6.41-1.06.05-.21-5.71-4.55L412,507.9a24.18,24.18,0,0,1,8.85-3.42q9.38-1.56,10.44,4.82a6.26,6.26,0,0,1,.06,1.91,5,5,0,0,1-.51,1.63,8.9,8.9,0,0,1-1.11,1.63,24.94,24.94,0,0,1-1.74,1.85l.06.12,6-1,.68,4.12-1,1.27-1.14.19a21.17,21.17,0,0,1-4.53.24,14.33,14.33,0,0,1-4.36-.89,14.64,14.64,0,0,1-3.65,2.21,18.19,18.19,0,0,1-4.17,1.2l-4,.67Zm5.36-9,6.91,5.25,1.77-1.84c.43-.46.81-.84,1.13-1.17a6.54,6.54,0,0,0,.78-.9,2.69,2.69,0,0,0,.4-.82,2,2,0,0,0,0-.88,1.82,1.82,0,0,0-1.58-1.51,11.89,11.89,0,0,0-4.28.16,23.46,23.46,0,0,0-2.69.61,21.78,21.78,0,0,0-2.52.86Zm3.36-10.49a2.66,2.66,0,0,1-1.83-.29,2.3,2.3,0,0,1-1-1.73,2.33,2.33,0,0,1,.37-2,2.67,2.67,0,0,1,1.63-.86l.75-.12a2.57,2.57,0,0,1,1.82.29,2.39,2.39,0,0,1,1,1.77,2.31,2.31,0,0,1-.38,2,2.57,2.57,0,0,1-1.64.86Z"/><path class="cls-2" d="M433,516.71l1-1.26,1.75-.29a3.43,3.43,0,0,0,2.32-1.08,2.9,2.9,0,0,0,.34-2.21l-3.54-21.36,4.65-.77,3.54,21.36c.45,2.72.18,4.82-.79,6.3s-2.86,2.46-5.66,3l-2.94.49Z"/><path class="cls-2" d="M445.22,488.8l4.69-.77,4.85,29.32-4.69.78Z"/><path class="cls-2" d="M474.76,514a6.17,6.17,0,0,1-4.29-.57,4.9,4.9,0,0,1-2.08-3.62l-.46-2.78,4.47-.74.45,2.7,6.84-1.14a4,4,0,0,0,2.46-1.05,2.23,2.23,0,0,0,.43-1.87,3.9,3.9,0,0,0-1.44-2.18,33.24,33.24,0,0,0-4.12-2.88l-5.08-3.19,3.36-4.47,4.4,2.94a30.64,30.64,0,0,1,3,2.25,15.26,15.26,0,0,1,2.12,2.15,9.84,9.84,0,0,1,1.34,2.24,11.59,11.59,0,0,1,.71,2.51,7.37,7.37,0,0,1-1.18,5.85,8.42,8.42,0,0,1-5.61,3Z"/><path class="cls-2" d="M487.71,481.77l4.69-.78,4.86,29.33-4.7.78Z"/><path class="cls-2" d="M502.14,514l2.67-.44a17.77,17.77,0,0,0,6.81-2.31,6.63,6.63,0,0,0,3-3.75l-5.22.87a8,8,0,0,1-5.83-.91,6.68,6.68,0,0,1-2.81-4.75,10.24,10.24,0,0,1,0-3.79,9.41,9.41,0,0,1,1.33-3.28,8.28,8.28,0,0,1,2.43-2.43,8.49,8.49,0,0,1,3.33-1.29,7.53,7.53,0,0,1,6.66,1.89c1.84,1.69,3.1,4.27,3.76,7.75l2.15-.36.68,4.12-1,1.27-1.49.25a11.82,11.82,0,0,1-3.53,7.81q-3.14,3.06-9.1,4l-3,.49Zm2.46-12.62a2,2,0,0,0,1.29,1.66,6,6,0,0,0,2.92.09l5.44-.9-.08-.44a5.52,5.52,0,0,0-2.06-3.73,4.9,4.9,0,0,0-3.88-.87,4.6,4.6,0,0,0-2.86,1.5A3.14,3.14,0,0,0,504.6,501.33Z"/><path class="cls-2" d="M519.42,502.42l1-1.27q1.27-.21,2.1-.39a8.92,8.92,0,0,0,1.54-.46c-.06-.18-.11-.36-.16-.54s-.08-.38-.11-.59q-.76-4.56,4.88-8.87l2.4-1.86,5.08-.85,4.73,7.61a4.45,4.45,0,0,0,1.67,1.78,3.91,3.91,0,0,0,2.25.14l1.19-.2.68,4.12-1,1.27a9.78,9.78,0,0,1-4.26-.05,6.65,6.65,0,0,1-3-2l-.26.09.51,3.09-5.48.91a10.62,10.62,0,0,1-5.14-.21,6.09,6.09,0,0,1-3.16-2.29l-.35.06a4.88,4.88,0,0,1-4.42,4.6Zm8-4.38a1.54,1.54,0,0,0,1.15,1.32,5.85,5.85,0,0,0,2.5,0l6-1-3.61-5.76-2.87,1.74a10.29,10.29,0,0,0-2.46,1.87A2.15,2.15,0,0,0,527.39,498Z"/><path class="cls-2" d="M545,498.19l1-1.27,1.23-.2a4.21,4.21,0,0,0,2.57-1.18,2.81,2.81,0,0,0,.48-2.38L546.78,472l4.7-.77,3.5,21.16q.49,3,3.73,2.44l1.54-.26.68,4.12-1,1.27a9.91,9.91,0,0,1-5.48-.32,5.88,5.88,0,0,1-3.09-3.31l-.26,0a6.27,6.27,0,0,1-1.36,4.09,6.77,6.77,0,0,1-4.06,1.86Z"/><path class="cls-2" d="M559.24,495.83l1-1.27,1.75-.29a3.46,3.46,0,0,0,2.33-1.08,2.86,2.86,0,0,0,.33-2.21l-3.54-21.36,4.65-.77,3.54,21.36q.68,4.08-.79,6.3c-1,1.48-2.85,2.46-5.66,2.95l-2.94.49Z"/></svg>