<svg width="66" height="66" viewBox="0 0 66 66" fill="none" xmlns="http://www.w3.org/2000/svg">
<rect width="66" height="66" rx="13" fill="#006751"/>
<path d="M50.449 15.5823C47.0212 12.0625 41.4826 10.3522 33.0206 10.1993C33.0072 10.1993 32.9937 10.1993 32.9803 10.1993C24.5183 10.3513 18.9797 12.0616 15.5519 15.5823C12.025 19.0038 10.3111 24.5326 10.1582 32.9803V33.0206C10.3111 41.4675 12.025 46.9962 15.5519 50.4177C18.9797 53.9375 24.5183 55.6478 32.9803 55.8007H33C33 55.8007 33.0134 55.8007 33.0197 55.8007C41.4817 55.6487 47.0203 53.9384 50.4481 50.4177C53.975 46.9962 55.6898 41.4675 55.8418 33.0206C55.8418 33.0072 55.8418 32.9938 55.8418 32.9803C55.6907 24.5335 53.9768 19.0038 50.449 15.5823ZM48.8826 48.8236C48.8746 48.8316 48.8665 48.8397 48.8576 48.8477C45.8715 51.9223 40.8318 53.4216 33 53.5647C25.1682 53.4216 20.1294 51.9223 17.1424 48.8477C17.1344 48.8397 17.1263 48.8316 17.1183 48.8236C14.0392 45.8438 12.5372 40.8148 12.3933 33C12.5372 25.1852 14.0383 20.1563 17.1192 17.1764C17.1272 17.1684 17.1362 17.1603 17.1433 17.1523C20.1303 14.0777 25.1691 12.5784 33.0009 12.4344C40.8327 12.5775 45.8715 14.0768 48.8585 17.1514C48.8665 17.1594 48.8745 17.1675 48.8835 17.1755C51.9635 20.1554 53.4654 25.1843 53.6094 32.9991C53.4645 40.8148 51.9626 45.8438 48.8826 48.8236Z" fill="white"/>
<path d="M32.8923 33.5825C37.3044 33.5825 40.8939 29.9992 40.8939 25.5943C40.8939 21.1893 37.3044 17.606 32.8923 17.606C28.4802 17.606 24.8906 21.1893 24.8906 25.5943C24.8906 29.9992 28.4802 33.5825 32.8923 33.5825ZM32.8923 19.8411C36.0724 19.8411 38.6588 22.4222 38.6588 25.5943C38.6588 28.7663 36.0724 31.3474 32.8923 31.3474C29.7122 31.3474 27.1257 28.7663 27.1257 25.5943C27.1257 22.4222 29.7122 19.8411 32.8923 19.8411Z" fill="white"/>
<path d="M45.8038 41.5909C45.6375 38.3375 43.1691 35.4649 39.2005 33.9066C38.512 33.6366 37.728 33.6724 37.0485 34.0067C35.7495 34.6469 34.3512 34.9714 32.8921 34.9714C31.4608 34.9714 30.0884 34.6594 28.8108 34.0434C28.1278 33.7144 27.3419 33.6849 26.6562 33.962C22.7761 35.5311 20.3622 38.3804 20.1986 41.5837C20.1977 41.6016 20.1968 41.6195 20.1968 41.6383L20.1914 43.6615C20.1914 46.2712 22.3183 48.3945 24.9316 48.3945H41.0681C43.6823 48.3945 45.8083 46.2712 45.8083 43.6588L45.8038 41.6454C45.8047 41.6275 45.8047 41.6088 45.8038 41.5909ZM41.069 46.1594H24.9316C23.5503 46.1594 22.4265 45.0383 22.4265 43.6641L22.4319 41.6731C22.5633 39.371 24.4533 37.2646 27.4939 36.0353C27.5976 35.9933 27.7237 36.0013 27.8408 36.0577C29.4233 36.8203 31.1228 37.2074 32.8921 37.2074C34.6963 37.2074 36.4271 36.8051 38.0364 36.013C38.1526 35.9557 38.2787 35.9468 38.3833 35.9879C41.4534 37.1931 43.4382 39.3728 43.5696 41.6803L43.5741 43.6624C43.5741 45.0392 42.4503 46.1594 41.069 46.1594Z" fill="white"/>
</svg>
